<svg id="Layer_1" data-name="Layer 1" xmlns="http://www.w3.org/2000/svg" viewBox="0 0 16 16"><defs><style>.cls-1{fill:#036;}</style></defs><title>16x16px</title><polygon class="cls-1" points="7.54 11.56 5.96 9.49 3.63 11.56 1.93 11.56 1.93 3.02 3.48 3.02 3.48 5.86 6.72 3.02 9.08 3.02 3.48 7.92 3.48 9.59 6.19 7.22 9.52 11.56 7.54 11.56"/><polygon class="cls-1" points="8.6 13 8.13 12.34 10.12 12.34 10.6 13 8.6 13"/><polygon points="7.03 12.51 7.32 13 0.54 13 0.53 3 1.06 3 1.04 12.5 7.03 12.51"/><path d="M11,8.54A24.48,24.48,0,0,1,9.55,3H11Z"/><path d="M12.75,10.47,11,10.38l0-1.65A22.5,22.5,0,0,1,9.51,3.31l.09,7.12a1.09,1.09,0,0,0,1,1.12h4.84S15,10.64,12.75,10.47Z"/><path d="M11.11,8.87l0,1.43,1.35,0A3,3,0,0,1,11.11,8.87Z"/></svg>