<svg id="Layer_1" data-name="Layer 1" xmlns="http://www.w3.org/2000/svg" viewBox="0 0 32 32"><defs><style>.cls-1{fill:#036;}</style></defs><title>32x32px</title><polygon class="cls-1" points="15.08 23.14 11.91 18.99 7.24 23.14 3.82 23.14 3.82 6.01 6.94 6.01 6.94 11.7 13.43 6.01 18.17 6.01 6.94 15.84 6.94 19.2 12.38 14.44 19.05 23.14 15.08 23.14"/><polygon class="cls-1" points="17.2 26.03 16.26 24.71 20.25 24.71 21.22 26.03 17.2 26.03"/><polygon points="14.06 25.05 14.63 26.03 1.03 26.03 1 5.97 2.08 5.97 2.03 25.03 14.06 25.05"/><path d="M22,17.08c-1.48-3-2.51-8.67-2.91-11.07h2.83Z"/><path d="M25.53,21l-3.47-.18,0-3.31c-1.47-2.76-2.53-8.14-3-10.88l.16,14.28a2.2,2.2,0,0,0,2.08,2.25H31S30.05,21.3,25.53,21Z"/><path d="M22.24,17.75l.06,2.87L25,20.7A6,6,0,0,1,22.24,17.75Z"/></svg>