<svg id="Layer_1" data-name="Layer 1" xmlns="http://www.w3.org/2000/svg" viewBox="0 0 350 75"><defs><style>.cls-1{fill:#036;}</style></defs><title>Black Blue</title><path d="M123.17,45.7c-.7.6-1.48,1.24-2.36,1.9a4.13,4.13,0,0,1-2.49,1c-1.15,0-1.82-.81-2-2.45a66.4,66.4,0,0,1-.28-7.09q0-4.71.31-9.45c.21-3.16.47-6.3.79-9.44l-1-.62L112,22.18A22.36,22.36,0,0,0,107.25,20a17.4,17.4,0,0,0-5.33-.8q-8.23,0-12.48,5.36T85.18,40.44a23.26,23.26,0,0,0,.49,4.6,17.36,17.36,0,0,0,1.62,4.67,10,10,0,0,0,3,3.6A7.71,7.71,0,0,0,95,54.69a16.1,16.1,0,0,0,6.85-1.55,35.15,35.15,0,0,0,6-3.56l.9.34a8.37,8.37,0,0,0,1.08,3,3.36,3.36,0,0,0,3.21,1.53,9,9,0,0,0,4.43-1.15,17.79,17.79,0,0,0,3.84-2.83,40.17,40.17,0,0,0,3.15-3.36ZM108.85,36c0,1.91-.11,3.73-.18,5.47s-.17,3.1-.31,4.11a19.76,19.76,0,0,1-3.63,2.56,9.11,9.11,0,0,1-4.47,1.18,5.6,5.6,0,0,1-3.56-1.11,7.85,7.85,0,0,1-2.25-2.87,14,14,0,0,1-1.14-3.77A24.62,24.62,0,0,1,93,37.74a38.53,38.53,0,0,1,.38-5.12A20.53,20.53,0,0,1,94.8,27.4a10.23,10.23,0,0,1,2.91-4,7.27,7.27,0,0,1,4.84-1.56,5.34,5.34,0,0,1,4.18,1.49,7.36,7.36,0,0,1,1.77,3.56,20.33,20.33,0,0,1,.41,3.87C108.91,32.32,108.89,34.06,108.85,36Z"/><path d="M165.44,45.91A28.13,28.13,0,0,1,163,47.53a5.08,5.08,0,0,1-2.48.94,1.75,1.75,0,0,1-1.53-.83,5.4,5.4,0,0,1-.76-1.94,10.54,10.54,0,0,1-.2-1.94l.06-20.27c0-1.71,0-3.23.08-4.57s.1-2.63.16-3.87.16-2.62.25-4.12.21-3.24.35-5.22l-.63-.42L145.1,6.75l-1,.62V9c1.52.19,2.78.38,3.77.59a3.8,3.8,0,0,1,2.18,1.11,4.19,4.19,0,0,1,.69,2.73v6.43l-.48.35a12.12,12.12,0,0,0-3.12-.69c-1.06-.09-2.12-.14-3.18-.14a16.61,16.61,0,0,0-9.44,2.66,17.48,17.48,0,0,0-6.16,7.37,25.65,25.65,0,0,0-2.18,10.86,21,21,0,0,0,.55,4.71,15.71,15.71,0,0,0,1.84,4.57A9.86,9.86,0,0,0,132.06,53a10.14,10.14,0,0,0,5.36,1.32,16.13,16.13,0,0,0,7-1.63,46.1,46.1,0,0,0,6.26-3.56,8.06,8.06,0,0,0,1.14,3.56,3.6,3.6,0,0,0,3.36,1.7,8.64,8.64,0,0,0,4.18-1.11,21,21,0,0,0,3.88-2.73c1.22-1.08,2.34-2.14,3.35-3.15Zm-14.67-.07A26.73,26.73,0,0,1,147,48.22a9.29,9.29,0,0,1-4.49,1.08,6.43,6.43,0,0,1-3.95-1.14,7.85,7.85,0,0,1-2.38-2.95A13.31,13.31,0,0,1,135,41.34a26.66,26.66,0,0,1-.31-4,28.82,28.82,0,0,1,.48-5.09,17.1,17.1,0,0,1,1.7-4.94,10.42,10.42,0,0,1,3.29-3.74,8.81,8.81,0,0,1,5.19-1.46,6,6,0,0,1,3.9,1.22c1,.8,1.49,2.57,1.49,5.29Z"/><path d="M201.9,19.69,195,22.1q.35,2.77.48,5.71c.1,2,.14,4,.14,6s0,4.32-.1,6.47-.2,4.23-.38,6.26c-.37.23-1,.59-1.87,1.07a19.31,19.31,0,0,1-2.87,1.28,9,9,0,0,1-3,.56c-2.54,0-4.22-.78-5.05-2.32s-1.25-4.17-1.25-7.86q0-3.24.18-6.19t.17-6a17.45,17.45,0,0,0-.35-4.39,3.46,3.46,0,0,0-.9-1.63,4.53,4.53,0,0,0-3.11-1.25A12.27,12.27,0,0,0,171,21.55a32.56,32.56,0,0,0-5.26,3.67L167,27a12.11,12.11,0,0,1,2-1.45,4.08,4.08,0,0,1,2-.7,2.39,2.39,0,0,1,2.22,1,5.55,5.55,0,0,1,.72,2.46c.07.95.11,1.79.11,2.53,0,1.75-.07,3.52-.21,5.32s-.21,3.58-.21,5.33.05,3.19.14,4.74a14.78,14.78,0,0,0,.8,4.15,5.9,5.9,0,0,0,2.24,2.94,7.84,7.84,0,0,0,4.5,1.11A17.81,17.81,0,0,0,188,52.93a38.6,38.6,0,0,0,6.4-3.29l.69.28a38.73,38.73,0,0,1-.94,8.2,12.42,12.42,0,0,1-3,5.92,8,8,0,0,1-6.06,2.21,6.79,6.79,0,0,1-4.8-2.08,21.36,21.36,0,0,1-3.77-4.84h-1.46L170.9,64.8a14.2,14.2,0,0,0,5,3.52A14.85,14.85,0,0,0,182,69.71a23.09,23.09,0,0,0,15.78-6.44,14.54,14.54,0,0,0,4.08-7.19,35.6,35.6,0,0,0,.83-5.3q.21-2.66.21-6.6V29.27q0-2.32,0-3.84c0-1,.06-1.93.11-2.73s.09-1.72.13-2.74Z"/><path d="M261.38,45.42l1.17,1.11v.76a44.31,44.31,0,0,1-3,3.29,18.85,18.85,0,0,1-3.7,2.83,8,8,0,0,1-4.05,1.15,5.53,5.53,0,0,1-2.35-.52,4.81,4.81,0,0,1-1.8-1.42,6.87,6.87,0,0,1-1.18-3,31.7,31.7,0,0,1-.21-5c.05-2.15.07-5,.07-8.48V28a7.19,7.19,0,0,0-.52-2.25,1.82,1.82,0,0,0-1.9-1.14,4.86,4.86,0,0,0-2.32.66,22,22,0,0,0-2.45,1.55L238,25.29c1.06-.88,2.23-1.75,3.49-2.63a24.22,24.22,0,0,1,3.91-2.21,9.77,9.77,0,0,1,4-.9,5.27,5.27,0,0,1,2,.38,2.79,2.79,0,0,1,1.46,1.21,5.64,5.64,0,0,1,.62,1.73A25.11,25.11,0,0,1,253.7,27c0,1.38,0,2.78-.11,4.19s-.1,2.8-.1,4.18c0,2.82,0,5.21,0,7.2a12.8,12.8,0,0,0,.59,4.56,2.37,2.37,0,0,0,2.42,1.59,4,4,0,0,0,2.56-1.1C259.9,46.83,260.68,46.11,261.38,45.42Z"/><path d="M245.39,10.69a4.41,4.41,0,0,1,1.35-3.22,4.52,4.52,0,0,1,6.44,0,4.52,4.52,0,0,1,0,6.44,4.52,4.52,0,0,1-6.44,0A4.39,4.39,0,0,1,245.39,10.69Z"/><path d="M289.12,40.34a9.52,9.52,0,0,0-3-2.74A51.56,51.56,0,0,0,281,34.9c-1.16-.55-2.42-1.17-3.77-1.86a12.23,12.23,0,0,1-3.46-2.53A4.87,4.87,0,0,1,272.31,27a5.63,5.63,0,0,1,1.07-3.63A4.1,4.1,0,0,1,276.81,22a5.72,5.72,0,0,1,3.59,1.07,7.63,7.63,0,0,1,2.18,2.66,10.07,10.07,0,0,1,1,3.26l1,.27,5.05-5.12a7,7,0,0,0-4.39-3.87,21.38,21.38,0,0,0-5.92-.83,19,19,0,0,0-6.67,1.17,11.63,11.63,0,0,0-5.13,3.67,10.08,10.08,0,0,0-2,6.43,6.83,6.83,0,0,0,1.2,4,12,12,0,0,0,3.12,3,37.26,37.26,0,0,0,4,2.32c1.38.69,2.69,1.33,3.94,1.93a11.53,11.53,0,0,1,2.91,1.87,5.7,5.7,0,0,1,1.17,1.45,3.54,3.54,0,0,1,.42,1.73,4.44,4.44,0,0,1-1.73,3.7,7,7,0,0,1-8.23,0,8.8,8.8,0,0,1-2.46-3.29,30.17,30.17,0,0,1-1.42-3.9l-1-.08-4.35,6.51a12.32,12.32,0,0,0,5.49,3.67,21.65,21.65,0,0,0,6.47,1,22.68,22.68,0,0,0,5.23-.62,17,17,0,0,0,4.88-1.94,10.92,10.92,0,0,0,3.56-3.32,8.19,8.19,0,0,0,1.35-4.7A6.75,6.75,0,0,0,289.12,40.34Z"/><path d="M316.17,45.84h-.69a13.61,13.61,0,0,1-2.67,1.9,6,6,0,0,1-2.93.86,2.75,2.75,0,0,1-2.67-1.55,10.73,10.73,0,0,1-1-4.08c-.11-1.69-.17-3.5-.17-5.43v-11l.55-.55h7.61l.83-.62.69-1.8-.48-.69h-8.65l-.48-.55c.09-1.06.18-2.24.27-3.53s.18-2.53.25-3.7.17-2.55.31-4.12l-1-.49L298.53,13c0,2.12.09,3.92.13,5.37s.08,2.78.08,4l-.49.62h-6.64l-.76.48-.7,2,.42.55h7.61l.62.62V42.38c0,1.43.05,2.86.14,4.29a15.07,15.07,0,0,0,.76,3.91,5.9,5.9,0,0,0,2,2.8,6.37,6.37,0,0,0,3.88,1A9,9,0,0,0,310,53.24a17.86,17.86,0,0,0,3.88-2.9A32.9,32.9,0,0,0,317,46.88Z"/><polygon class="cls-1" points="75.74 57.43 66.12 44.82 51.93 57.42 41.55 57.43 41.55 5.43 51.02 5.43 51.02 22.69 70.73 5.43 85.1 5.43 51.02 35.27 51.02 45.46 67.53 31.01 87.8 57.43 75.74 57.43"/><polygon class="cls-1" points="82.16 66.19 79.33 62.2 91.42 62.2 94.39 66.19 82.16 66.19"/><polygon points="72.64 63.23 74.36 66.2 33.08 66.2 33 5.29 36.28 5.29 36.13 63.16 72.64 63.23"/><path class="cls-1" d="M219.69,39c-4.48-9.17-7.63-26.33-8.82-33.6h8.58Z"/><path class="cls-1" d="M230.36,50.79l-10.53-.53-.12-10c-4.46-8.38-7.66-24.73-9.08-33l.51,43.33a6.69,6.69,0,0,0,6.32,6.84H247S244.05,51.84,230.36,50.79Z"/><path class="cls-1" d="M220.35,41.05l.19,8.72,8.24.23A18.27,18.27,0,0,1,220.35,41.05Z"/></svg>