<svg id="Layer_1" data-name="Layer 1" xmlns="http://www.w3.org/2000/svg" viewBox="0 0 350 75"><defs><style>.cls-1{fill:#fff;}.cls-2{fill:#036;}</style></defs><title>White Blue</title><path class="cls-1" d="M119.88,46.22c-.74.64-1.57,1.31-2.5,2a4.44,4.44,0,0,1-2.65,1.07q-1.85,0-2.13-2.61a71.16,71.16,0,0,1-.3-7.55q0-5,.33-10c.22-3.36.51-6.7.85-10l-1-.66L108,21.21A23.4,23.4,0,0,0,103,18.89,18.34,18.34,0,0,0,97.29,18Q88.53,18,84,23.74T79.49,40.63A25.57,25.57,0,0,0,80,45.52a18.38,18.38,0,0,0,1.73,5A10.64,10.64,0,0,0,85,54.31a8.22,8.22,0,0,0,5,1.47,17,17,0,0,0,7.28-1.65,37,37,0,0,0,6.4-3.79l1,.37a8.71,8.71,0,0,0,1.14,3.23,3.58,3.58,0,0,0,3.42,1.62,9.6,9.6,0,0,0,4.71-1.21,19.07,19.07,0,0,0,4.08-3,43.6,43.6,0,0,0,3.35-3.57ZM104.65,35.88q-.08,3.06-.18,5.82c-.08,1.83-.19,3.29-.33,4.37a20.84,20.84,0,0,1-3.87,2.72A9.55,9.55,0,0,1,95.53,50a6,6,0,0,1-3.79-1.17,8.29,8.29,0,0,1-2.39-3.06,14.47,14.47,0,0,1-1.21-4,25.22,25.22,0,0,1-.34-4,40.07,40.07,0,0,1,.41-5.44,21.63,21.63,0,0,1,1.51-5.56,10.91,10.91,0,0,1,3.09-4.27A7.78,7.78,0,0,1,98,20.84a5.72,5.72,0,0,1,4.45,1.58,7.8,7.8,0,0,1,1.87,3.79,20.6,20.6,0,0,1,.44,4.12C104.72,32,104.7,33.85,104.65,35.88Z"/><path class="cls-1" d="M164.83,46.44a30.2,30.2,0,0,1-2.57,1.73,5.53,5.53,0,0,1-2.65,1,1.84,1.84,0,0,1-1.62-.88,5.63,5.63,0,0,1-.81-2.06,11.06,11.06,0,0,1-.22-2.06L157,22.6c0-1.81,0-3.43.08-4.85s.11-2.8.18-4.12.16-2.78.26-4.38.22-3.45.37-5.55l-.67-.45L143.2,4.8l-1,.66V7.23c1.62.19,3,.4,4,.62A4.12,4.12,0,0,1,148.5,9a4.45,4.45,0,0,1,.74,2.91v6.84l-.52.36a13.08,13.08,0,0,0-3.31-.73q-1.69-.15-3.39-.15a17.69,17.69,0,0,0-10,2.83,18.53,18.53,0,0,0-6.54,7.84,27.13,27.13,0,0,0-2.32,11.55,21.91,21.91,0,0,0,.59,5,16.51,16.51,0,0,0,2,4.86A10.51,10.51,0,0,0,129.33,54a10.91,10.91,0,0,0,5.71,1.4,17.25,17.25,0,0,0,7.46-1.73,49.11,49.11,0,0,0,6.66-3.79,8.7,8.7,0,0,0,1.21,3.79,3.84,3.84,0,0,0,3.57,1.8,9.15,9.15,0,0,0,4.45-1.18,22.22,22.22,0,0,0,4.13-2.9q1.93-1.72,3.56-3.35Zm-15.59-.07a28.65,28.65,0,0,1-4,2.53A9.87,9.87,0,0,1,140.48,50a6.76,6.76,0,0,1-4.19-1.21,8.32,8.32,0,0,1-2.54-3.13,14,14,0,0,1-1.25-4.12,28.78,28.78,0,0,1-.33-4.26,30.55,30.55,0,0,1,.51-5.41,18.48,18.48,0,0,1,1.8-5.26,11.29,11.29,0,0,1,3.5-4,9.46,9.46,0,0,1,5.52-1.54,6.36,6.36,0,0,1,4.15,1.29c1.06.86,1.59,2.73,1.59,5.63Z"/><path class="cls-1" d="M203.6,18.56l-7.35,2.57q.36,3,.51,6.07c.1,2.08.15,4.21.15,6.36q0,3.46-.11,6.88t-.41,6.66q-.58.38-2,1.14a20.24,20.24,0,0,1-3,1.36,9.43,9.43,0,0,1-3.21.59c-2.7,0-4.48-.82-5.37-2.46s-1.32-4.43-1.32-8.36q0-3.45.18-6.58c.12-2.08.19-4.2.19-6.36a19.38,19.38,0,0,0-.37-4.67,3.73,3.73,0,0,0-1-1.73,4.79,4.79,0,0,0-3.31-1.33,13.06,13.06,0,0,0-6.47,1.84,34.8,34.8,0,0,0-5.6,3.9l1.33,1.84a13.27,13.27,0,0,1,2.1-1.54,4.32,4.32,0,0,1,2.17-.74,2.53,2.53,0,0,1,2.35,1.1,6,6,0,0,1,.78,2.62c.07,1,.1,1.9.1,2.68,0,1.87-.07,3.75-.22,5.67s-.22,3.8-.22,5.66.05,3.4.15,5a15.84,15.84,0,0,0,.85,4.42,6.27,6.27,0,0,0,2.39,3.12,8.26,8.26,0,0,0,4.78,1.18,19,19,0,0,0,7.1-1.58,41.2,41.2,0,0,0,6.81-3.5l.73.3a40.8,40.8,0,0,1-1,8.72,13.24,13.24,0,0,1-3.16,6.29,8.5,8.5,0,0,1-6.44,2.35,7.28,7.28,0,0,1-5.11-2.21,22.85,22.85,0,0,1-4-5.15h-1.54l-4.42,5.82a15.08,15.08,0,0,0,5.3,3.75,15.88,15.88,0,0,0,6.47,1.47,24.43,24.43,0,0,0,16.78-6.85,15.35,15.35,0,0,0,4.34-7.64,36.2,36.2,0,0,0,.88-5.63q.22-2.84.22-7V28.75c0-1.65,0-3,0-4.09s.06-2,.11-2.9.1-1.83.15-2.91Z"/><path class="cls-1" d="M266.85,45.92l1.25,1.18v.81a45.68,45.68,0,0,1-3.24,3.5,19.85,19.85,0,0,1-3.93,3,8.52,8.52,0,0,1-4.31,1.22,5.82,5.82,0,0,1-2.5-.56,5.09,5.09,0,0,1-1.91-1.5A7.27,7.27,0,0,1,251,50.34a32,32,0,0,1-.22-5.33c0-2.29.07-5.29.07-9V27.38a7.86,7.86,0,0,0-.55-2.39,1.94,1.94,0,0,0-2-1.21,5.14,5.14,0,0,0-2.47.7,25.52,25.52,0,0,0-2.61,1.65L242,24.52q1.7-1.41,3.72-2.8a25.7,25.7,0,0,1,4.15-2.35,10.37,10.37,0,0,1,4.27-1,6,6,0,0,1,2.14.4,3,3,0,0,1,1.54,1.29,5.66,5.66,0,0,1,.66,1.84,26.76,26.76,0,0,1,.22,4.34c0,1.47,0,3-.11,4.45s-.11,3-.11,4.45q0,4.5,0,7.65a13.41,13.41,0,0,0,.62,4.86,2.52,2.52,0,0,0,2.58,1.69,4.29,4.29,0,0,0,2.72-1.17C265.28,47.42,266.11,46.66,266.85,45.92Z"/><path class="cls-1" d="M249.85,9a4.67,4.67,0,0,1,1.44-3.42,4.8,4.8,0,0,1,6.84,0A4.67,4.67,0,0,1,259.57,9a4.64,4.64,0,0,1-1.44,3.42,4.78,4.78,0,0,1-6.84,0A4.64,4.64,0,0,1,249.85,9Z"/><path class="cls-1" d="M296.35,40.52a9.77,9.77,0,0,0-3.16-2.91,51.21,51.21,0,0,0-5.52-2.87c-1.23-.59-2.56-1.25-4-2A13.46,13.46,0,0,1,280,30.07a5.23,5.23,0,0,1-1.51-3.71,6,6,0,0,1,1.15-3.87,4.37,4.37,0,0,1,3.64-1.43,6.07,6.07,0,0,1,3.82,1.14A8.19,8.19,0,0,1,289.4,25a10.83,10.83,0,0,1,1.07,3.46l1.1.29,5.37-5.44a7.49,7.49,0,0,0-4.67-4.12,22.54,22.54,0,0,0-6.29-.88,20.2,20.2,0,0,0-7.1,1.24,12.33,12.33,0,0,0-5.45,3.91,10.71,10.71,0,0,0-2.09,6.84,7.24,7.24,0,0,0,1.28,4.3,12.55,12.55,0,0,0,3.32,3.16,36.83,36.83,0,0,0,4.23,2.47c1.47.74,2.86,1.42,4.19,2.06a12.41,12.41,0,0,1,3.09,2,6,6,0,0,1,1.25,1.54,3.82,3.82,0,0,1,.44,1.84,4.72,4.72,0,0,1-1.84,3.94,7.49,7.49,0,0,1-8.75,0,9.31,9.31,0,0,1-2.61-3.5A31.21,31.21,0,0,1,274.43,44l-1.11-.07-4.63,6.91a13.08,13.08,0,0,0,5.85,3.91,23,23,0,0,0,6.88,1,24.43,24.43,0,0,0,5.55-.66,18.23,18.23,0,0,0,5.19-2.06A11.69,11.69,0,0,0,296,49.53a8.79,8.79,0,0,0,1.43-5A7.17,7.17,0,0,0,296.35,40.52Z"/><path class="cls-1" d="M325.12,46.37h-.74a14.24,14.24,0,0,1-2.83,2,6.54,6.54,0,0,1-3.13.92,2.93,2.93,0,0,1-2.83-1.65,11.17,11.17,0,0,1-1-4.35c-.12-1.79-.19-3.71-.19-5.77V25.84l.6-.59h8.09l.88-.66.74-1.92-.52-.73H315l-.52-.59c.1-1.12.19-2.38.29-3.75s.19-2.69.26-3.93.19-2.72.33-4.38l-1.1-.52-7.87,2.65c0,2.25.09,4.16.14,5.7s.08,3,.08,4.23l-.52.66H299l-.81.52-.74,2.13.45.59H306l.66.66V42.69q0,2.28.15,4.56a15.59,15.59,0,0,0,.81,4.16,6.21,6.21,0,0,0,2.13,3,6.79,6.79,0,0,0,4.12,1.1,9.6,9.6,0,0,0,4.74-1.25,19.53,19.53,0,0,0,4.13-3.09A34.87,34.87,0,0,0,326,47.47Z"/><polygon class="cls-2" points="69.45 58.69 59.22 45.29 44.13 58.68 33.1 58.69 33.1 3.4 43.16 3.4 43.16 21.75 64.12 3.4 79.41 3.4 43.16 35.13 43.16 45.97 60.72 30.6 82.27 58.69 69.45 58.69"/><polygon class="cls-2" points="76.28 68.01 73.27 63.76 86.13 63.76 89.28 68.01 76.28 68.01"/><polygon class="cls-1" points="66.16 64.86 67.98 68.02 24.08 68.02 24 3.25 27.49 3.25 27.33 64.78 66.16 64.86"/><path class="cls-2" d="M222.53,39.13c-4.77-9.76-8.12-28-9.39-35.73h9.13Z"/><path class="cls-2" d="M233.87,51.63l-11.2-.56-.13-10.68c-4.73-8.91-8.14-26.3-9.65-35.11l.54,46.07a7.12,7.12,0,0,0,6.72,7.28h31.36S248.43,52.75,233.87,51.63Z"/><path class="cls-2" d="M223.23,41.27l.2,9.28,8.76.24A19.46,19.46,0,0,1,223.23,41.27Z"/></svg>